<mxfile host="app.diagrams.net" modified="2023-02-23T11:59:33.492Z" agent="5.0 (Windows)" etag="SDTRhgFmUMMSykyyeOAv" version="20.8.23" type="github">
  <diagram id="C5RBs43oDa-KdzZeNtuy" name="Page-1">
    <mxGraphModel dx="1257" dy="631" grid="1" gridSize="10" guides="1" tooltips="1" connect="1" arrows="1" fold="1" page="1" pageScale="1" pageWidth="827" pageHeight="1169" math="0" shadow="0">
      <root>
        <mxCell id="WIyWlLk6GJQsqaUBKTNV-0" />
        <mxCell id="WIyWlLk6GJQsqaUBKTNV-1" parent="WIyWlLk6GJQsqaUBKTNV-0" />
        <mxCell id="Cxzv2Y022RPomxQbiyUi-2" value="" style="edgeStyle=orthogonalEdgeStyle;rounded=0;orthogonalLoop=1;jettySize=auto;html=1;" edge="1" parent="WIyWlLk6GJQsqaUBKTNV-1" source="Cxzv2Y022RPomxQbiyUi-0" target="Cxzv2Y022RPomxQbiyUi-1">
          <mxGeometry relative="1" as="geometry" />
        </mxCell>
        <mxCell id="Cxzv2Y022RPomxQbiyUi-0" value="start" style="ellipse;whiteSpace=wrap;html=1;" vertex="1" parent="WIyWlLk6GJQsqaUBKTNV-1">
          <mxGeometry x="350" y="130" width="120" height="80" as="geometry" />
        </mxCell>
        <mxCell id="Cxzv2Y022RPomxQbiyUi-4" value="" style="edgeStyle=orthogonalEdgeStyle;rounded=0;orthogonalLoop=1;jettySize=auto;html=1;" edge="1" parent="WIyWlLk6GJQsqaUBKTNV-1" source="Cxzv2Y022RPomxQbiyUi-1" target="Cxzv2Y022RPomxQbiyUi-3">
          <mxGeometry relative="1" as="geometry" />
        </mxCell>
        <mxCell id="Cxzv2Y022RPomxQbiyUi-1" value="&lt;div&gt;Arr1&lt;/div&gt;&lt;div&gt;Arr2&lt;/div&gt;&lt;div&gt;i = 0&lt;/div&gt;&lt;div&gt;count = 0&lt;br&gt;&lt;/div&gt;" style="whiteSpace=wrap;html=1;" vertex="1" parent="WIyWlLk6GJQsqaUBKTNV-1">
          <mxGeometry x="350" y="250" width="120" height="60" as="geometry" />
        </mxCell>
        <mxCell id="Cxzv2Y022RPomxQbiyUi-6" value="NO" style="edgeStyle=orthogonalEdgeStyle;rounded=0;orthogonalLoop=1;jettySize=auto;html=1;" edge="1" parent="WIyWlLk6GJQsqaUBKTNV-1" source="Cxzv2Y022RPomxQbiyUi-3" target="Cxzv2Y022RPomxQbiyUi-5">
          <mxGeometry relative="1" as="geometry" />
        </mxCell>
        <mxCell id="Cxzv2Y022RPomxQbiyUi-17" value="" style="edgeStyle=orthogonalEdgeStyle;rounded=0;orthogonalLoop=1;jettySize=auto;html=1;entryX=0;entryY=0.5;entryDx=0;entryDy=0;" edge="1" parent="WIyWlLk6GJQsqaUBKTNV-1" source="Cxzv2Y022RPomxQbiyUi-3" target="Cxzv2Y022RPomxQbiyUi-18">
          <mxGeometry relative="1" as="geometry">
            <mxPoint x="610" y="430" as="targetPoint" />
          </mxGeometry>
        </mxCell>
        <mxCell id="Cxzv2Y022RPomxQbiyUi-3" value="i &amp;lt; Arr1.Length" style="rhombus;whiteSpace=wrap;html=1;" vertex="1" parent="WIyWlLk6GJQsqaUBKTNV-1">
          <mxGeometry x="320" y="380" width="180" height="100" as="geometry" />
        </mxCell>
        <mxCell id="Cxzv2Y022RPomxQbiyUi-10" value="NO" style="edgeStyle=orthogonalEdgeStyle;rounded=0;orthogonalLoop=1;jettySize=auto;html=1;" edge="1" parent="WIyWlLk6GJQsqaUBKTNV-1" source="Cxzv2Y022RPomxQbiyUi-5" target="Cxzv2Y022RPomxQbiyUi-9">
          <mxGeometry relative="1" as="geometry" />
        </mxCell>
        <mxCell id="Cxzv2Y022RPomxQbiyUi-12" value="YES" style="edgeStyle=orthogonalEdgeStyle;rounded=0;orthogonalLoop=1;jettySize=auto;html=1;" edge="1" parent="WIyWlLk6GJQsqaUBKTNV-1" source="Cxzv2Y022RPomxQbiyUi-5" target="Cxzv2Y022RPomxQbiyUi-11">
          <mxGeometry relative="1" as="geometry" />
        </mxCell>
        <mxCell id="Cxzv2Y022RPomxQbiyUi-5" value="Arr1[i].Length &amp;lt;= 3" style="rhombus;whiteSpace=wrap;html=1;" vertex="1" parent="WIyWlLk6GJQsqaUBKTNV-1">
          <mxGeometry x="310" y="520" width="200" height="80" as="geometry" />
        </mxCell>
        <mxCell id="Cxzv2Y022RPomxQbiyUi-14" style="edgeStyle=orthogonalEdgeStyle;rounded=0;orthogonalLoop=1;jettySize=auto;html=1;entryX=0;entryY=0.5;entryDx=0;entryDy=0;" edge="1" parent="WIyWlLk6GJQsqaUBKTNV-1" source="Cxzv2Y022RPomxQbiyUi-9" target="Cxzv2Y022RPomxQbiyUi-3">
          <mxGeometry relative="1" as="geometry">
            <Array as="points">
              <mxPoint x="260" y="690" />
              <mxPoint x="260" y="430" />
            </Array>
          </mxGeometry>
        </mxCell>
        <mxCell id="Cxzv2Y022RPomxQbiyUi-9" value="i++" style="whiteSpace=wrap;html=1;" vertex="1" parent="WIyWlLk6GJQsqaUBKTNV-1">
          <mxGeometry x="350" y="660" width="120" height="60" as="geometry" />
        </mxCell>
        <mxCell id="Cxzv2Y022RPomxQbiyUi-13" style="edgeStyle=orthogonalEdgeStyle;rounded=0;orthogonalLoop=1;jettySize=auto;html=1;entryX=1;entryY=0.5;entryDx=0;entryDy=0;" edge="1" parent="WIyWlLk6GJQsqaUBKTNV-1" source="Cxzv2Y022RPomxQbiyUi-11" target="Cxzv2Y022RPomxQbiyUi-9">
          <mxGeometry relative="1" as="geometry">
            <Array as="points">
              <mxPoint x="630" y="690" />
            </Array>
          </mxGeometry>
        </mxCell>
        <mxCell id="Cxzv2Y022RPomxQbiyUi-11" value="Arr2[count] = Arr1[i]" style="whiteSpace=wrap;html=1;" vertex="1" parent="WIyWlLk6GJQsqaUBKTNV-1">
          <mxGeometry x="550" y="530" width="120" height="60" as="geometry" />
        </mxCell>
        <mxCell id="Cxzv2Y022RPomxQbiyUi-22" value="" style="edgeStyle=orthogonalEdgeStyle;rounded=0;orthogonalLoop=1;jettySize=auto;html=1;" edge="1" parent="WIyWlLk6GJQsqaUBKTNV-1" source="Cxzv2Y022RPomxQbiyUi-18" target="Cxzv2Y022RPomxQbiyUi-21">
          <mxGeometry relative="1" as="geometry" />
        </mxCell>
        <mxCell id="Cxzv2Y022RPomxQbiyUi-18" value="Arr2" style="shape=document;whiteSpace=wrap;html=1;boundedLbl=1;" vertex="1" parent="WIyWlLk6GJQsqaUBKTNV-1">
          <mxGeometry x="707" y="405" width="120" height="50" as="geometry" />
        </mxCell>
        <mxCell id="Cxzv2Y022RPomxQbiyUi-21" value="finish" style="ellipse;whiteSpace=wrap;html=1;" vertex="1" parent="WIyWlLk6GJQsqaUBKTNV-1">
          <mxGeometry x="707" y="510" width="120" height="80" as="geometry" />
        </mxCell>
      </root>
    </mxGraphModel>
  </diagram>
</mxfile>
